<?xml version="1.0" standalone="no"?>
<!DOCTYPE svg PUBLIC "-//W3C//DTD SVG 20010904//EN"
 "http://www.w3.org/TR/2001/REC-SVG-20010904/DTD/svg10.dtd">
<svg version="1.0" xmlns="http://www.w3.org/2000/svg"
 width="715.000000pt" height="105.000000pt" viewBox="0 0 715.000000 105.000000"
 preserveAspectRatio="xMidYMid meet">

    <g transform="translate(0.000000,105.000000) scale(0.100000,-0.100000)"
    fill="#000000" stroke="none">
        <path d="M413 1036 c-163 -38 -301 -146 -371 -292 l-37 -79 0 -145 0 -145 39
        -79 c112 -223 348 -334 599 -281 140 30 285 142 348 271 18 35 33 64 35 64 2
        0 16 -24 30 -52 73 -145 201 -248 351 -282 282 -63 537 81 632 357 20 58 23
        81 19 170 -6 136 -42 226 -130 322 -98 106 -188 156 -324 177 -219 34 -461
        -98 -551 -302 l-25 -54 -39 74 c-110 210 -353 326 -576 276z m340 -257 c40
        -11 62 -36 77 -90 18 -60 8 -69 -75 -69 -67 0 -74 2 -89 25 -16 25 -18 25
        -154 25 -142 0 -162 -5 -162 -42 0 -31 35 -38 187 -39 206 -1 249 -8 285 -48
        26 -29 28 -37 28 -115 0 -76 -3 -88 -25 -115 -43 -50 -77 -56 -320 -56 -191 0
        -224 2 -252 18 -37 20 -60 58 -63 102 -4 56 -5 55 78 55 73 0 80 -2 90 -24 6
        -14 22 -26 42 -30 40 -7 204 -6 244 3 37 8 55 34 40 59 -10 15 -35 18 -205 22
        -224 6 -248 13 -280 83 -45 101 1 223 91 240 51 9 426 7 463 -4z m1031 -239
        c76 -138 140 -260 143 -270 5 -19 0 -20 -80 -20 l-85 0 -31 50 -31 50 -168 0
        -169 0 -27 -50 -27 -50 -90 0 c-49 0 -89 4 -89 9 0 5 52 103 117 218 64 114
        124 222 133 238 43 79 34 75 155 75 l110 0 139 -250z" fill='#2b337e'/>
        <path d="M1505 614 c-15 -27 -31 -56 -36 -64 -10 -17 -39 -81 -39 -86 0 -2 47
        -4 105 -4 58 0 105 3 105 8 0 4 -25 49 -54 101 l-54 93 -27 -48z" fill='#2b337e'/>
        <path d="M2182 523 l3 -258 283 -3 c269 -2 284 -1 323 18 45 24 69 66 69 125
        0 29 -23 94 -33 95 -1 0 -20 7 -42 14 -39 14 -40 15 -15 24 47 18 63 47 63
        113 0 54 -3 63 -32 92 l-31 32 -295 3 -295 3 2 -258z m492 125 c20 -29 20 -34
        -4 -58 -18 -18 -33 -20 -180 -20 l-160 0 0 50 0 50 164 0 c159 0 165 -1 180
        -22z m7 -178 c27 -15 26 -75 -1 -90 -12 -6 -81 -9 -182 -8 l-163 3 -3 39 c-6
        68 -10 66 168 66 92 0 170 -4 181 -10z" fill='#21211e'/>
        <path d="M3204 733 c-15 -27 -37 -65 -50 -85 -13 -21 -24 -40 -24 -43 0 -2
        -35 -67 -79 -142 -43 -76 -86 -153 -95 -170 l-17 -33 85 0 84 0 26 45 27 45
        177 0 177 0 24 -45 24 -45 84 0 85 0 -37 68 c-21 37 -51 92 -68 122 -17 30
        -40 72 -51 93 -12 21 -28 50 -36 65 -8 15 -32 60 -54 100 l-38 72 -109 0 -108
        0 -27 -47z m156 -95 c0 -5 15 -35 33 -66 18 -31 38 -69 44 -84 l13 -28 -115 0
        c-133 0 -128 -12 -52 123 40 72 51 86 63 76 8 -6 14 -16 14 -21z" fill='#21211e'/>
        <path d="M3812 523 l3 -258 73 -3 72 -3 0 196 c0 107 3 195 8 195 4 0 50 -54
        102 -121 52 -67 105 -133 118 -148 13 -14 39 -47 59 -74 l37 -47 128 0 128 0
        0 260 0 260 -77 0 -76 0 6 -195 c4 -107 4 -195 -1 -195 -4 0 -45 48 -92 106
        -47 58 -118 146 -158 195 l-74 89 -129 0 -129 0 2 -257z" fill='#21211e'/>
        <path d="M4807 769 c-47 -11 -91 -43 -107 -78 -17 -37 -24 -224 -11 -295 12
        -63 34 -96 86 -124 25 -14 64 -17 255 -17 217 0 226 1 262 23 41 25 58 63 58
        128 l0 44 -72 0 c-70 0 -74 -1 -90 -29 -13 -24 -25 -31 -63 -37 -53 -7 -231 0
        -258 11 -24 10 -32 46 -32 142 1 122 2 123 182 123 130 0 145 -2 163 -20 11
        -11 20 -24 20 -30 0 -6 30 -10 70 -10 l70 0 0 44 c0 55 -33 105 -80 122 -41
        15 -393 17 -453 3z" fill='#21211e'/>
        <path d="M5480 520 l0 -260 75 0 75 0 0 260 0 260 -75 0 -75 0 0 -260z" fill='#21211e'/>
        <path d="M5890 520 l0 -260 285 0 c261 0 289 2 323 19 76 39 92 80 92 241 0
        163 -17 205 -95 241 -36 17 -70 19 -322 19 l-283 0 0 -260z m499 125 c35 -17
        41 -38 41 -135 0 -122 4 -120 -211 -120 l-179 0 0 135 0 135 160 0 c122 0 168
        -4 189 -15z" fill='#2a327e'/>
        <path d="M6670 614 c0 -4 31 -41 69 -83 l69 -76 -74 -90 c-40 -50 -74 -93 -74
        -97 0 -5 34 -8 75 -8 l75 0 47 65 c26 36 49 65 53 65 3 0 18 -19 33 -42 56
        -87 58 -88 136 -88 64 0 71 2 71 19 0 11 -4 22 -8 25 -5 3 -36 39 -70 80 l-62
        74 52 59 c29 32 61 68 72 81 l19 22 -84 -1 -84 0 -39 -51 -38 -50 -36 51 -36
        51 -83 0 c-46 0 -83 -3 -83 -6z" fill='#2a327e'/>
    </g>
</svg>
