<?xml version="1.0" standalone="no"?>
<!DOCTYPE svg PUBLIC "-//W3C//DTD SVG 20010904//EN"
 "http://www.w3.org/TR/2001/REC-SVG-20010904/DTD/svg10.dtd">
<svg version="1.0" xmlns="http://www.w3.org/2000/svg"
 width="714.000000pt" height="306.000000pt" viewBox="0 0 714.000000 306.000000"
 preserveAspectRatio="xMidYMid meet">
    <g transform="translate(0.000000,306.000000) scale(0.100000,-0.100000)"
    fill="#000000" stroke="none">
        <path d="M0 1535 l0 -1525 3570 0 3570 0 0 1525 0 1525 -3570 0 -3570 0 0
        -1525z m2860 945 c0 -126 3 -230 8 -230 4 0 23 11 42 24 113 76 236 65 318
        -29 127 -144 69 -394 -113 -488 -60 -31 -184 -35 -254 -8 -47 17 -56 18 -74 6
        -10 -7 -24 -12 -31 -9 -8 3 -10 112 -8 405 2 220 1 411 -2 425 -4 14 -16 26
        -30 30 -31 7 -43 34 -19 41 10 2 47 17 83 33 36 15 68 28 73 29 4 1 7 -102 7
        -229z m-1013 154 c40 -6 41 -7 47 -52 4 -26 9 -64 12 -84 8 -55 -18 -50 -47
        10 -18 35 -35 53 -69 70 -112 56 -230 -10 -230 -130 0 -91 34 -129 192 -209
        153 -79 201 -137 202 -244 0 -79 -17 -125 -65 -173 -59 -60 -119 -84 -217 -90
        -86 -5 -204 18 -219 41 -9 15 -32 170 -26 180 10 17 30 5 41 -27 7 -18 25 -51
        41 -73 103 -142 335 -70 319 98 -7 72 -45 113 -162 176 -131 70 -159 93 -190
        155 -44 88 -33 207 26 274 72 82 165 103 345 78z m605 -335 c21 -11 42 -28 48
        -38 6 -12 10 -99 10 -213 0 -240 4 -250 84 -236 38 6 26 -22 -21 -52 -68 -44
        -119 -40 -152 12 l-24 37 -31 -24 c-127 -97 -296 -61 -296 61 0 90 27 114 208
        178 l117 41 3 62 c4 82 -21 113 -96 121 -66 6 -95 -12 -113 -70 -17 -50 -58
        -80 -86 -62 -25 17 -19 62 13 95 27 28 143 94 193 110 35 10 97 1 143 -22z
        m2079 4 c56 -33 63 -67 69 -298 5 -200 6 -210 25 -214 46 -8 67 -21 57 -34
        -15 -18 -282 -11 -282 7 0 8 14 16 32 20 58 11 58 13 58 203 0 209 -7 235 -70
        254 -48 15 -111 2 -167 -32 l-33 -21 0 -176 c0 -97 3 -187 6 -199 4 -16 16
        -23 46 -28 28 -5 38 -11 36 -23 -2 -8 -6 -15 -10 -14 -5 1 -66 2 -138 2 -101
        0 -130 3 -130 13 0 8 17 18 38 23 l37 9 3 203 2 202 -35 21 c-20 12 -34 27
        -32 33 3 10 138 64 165 65 8 1 12 -13 12 -39 0 -22 2 -40 5 -40 3 0 28 14 57
        32 94 58 184 69 249 31z m646 6 c35 -11 73 -52 73 -77 0 -23 -30 -52 -53 -52
        -11 0 -39 20 -63 44 -45 47 -84 62 -139 52 -101 -19 -162 -167 -124 -297 39
        -128 189 -187 318 -123 41 21 55 24 64 14 9 -9 2 -21 -33 -52 -62 -55 -113
        -79 -182 -85 -78 -8 -139 11 -194 60 -66 58 -94 120 -94 206 0 226 210 378
        427 310z m-1420 0 c15 -5 40 -22 56 -37 l27 -26 0 -195 c0 -215 7 -247 50
        -245 14 0 32 3 40 5 30 8 14 -24 -25 -52 -53 -38 -106 -41 -140 -9 -14 13 -25
        29 -25 37 0 17 -24 17 -39 -1 -23 -28 -104 -58 -156 -58 -90 -1 -146 46 -147
        123 -1 77 36 107 214 171 l118 43 0 60 c0 73 -16 100 -69 116 -71 21 -141 -10
        -141 -62 0 -30 -39 -69 -70 -69 -32 0 -40 14 -33 54 7 34 48 67 144 117 79 41
        139 50 196 28z m1783 -254 l5 -259 38 -9 c27 -7 37 -14 35 -26 -2 -9 -7 -15
        -11 -13 -4 1 -65 2 -137 2 -104 0 -130 3 -130 14 0 8 15 17 34 20 19 4 39 13
        46 21 8 9 10 70 8 205 l-3 191 -35 29 c-42 35 -37 42 45 69 108 35 99 54 105
        -244z m1195 -180 c30 -29 32 -58 5 -85 -29 -29 -74 -26 -99 6 -12 15 -21 33
        -21 41 0 21 46 63 70 63 12 0 32 -11 45 -25z m-6232 -17 c22 -26 22 -40 -4
        -72 -25 -32 -70 -35 -99 -6 -22 22 -25 42 -9 71 22 42 79 45 112 7z m546 -205
        c24 -30 20 -58 -11 -85 -28 -25 -55 -22 -83 7 -30 29 -32 58 -5 85 29 29 74
        26 99 -7z m3821 -193 c28 -28 25 -64 -6 -89 -33 -26 -55 -26 -82 -3 -31 27
        -35 55 -11 85 25 33 70 36 99 7z m-2660 -90 c58 -58 -20 -142 -88 -94 -30 21
        -30 77 0 98 31 22 64 20 88 -4z m-1552 -27 c-2 -12 -16 -20 -42 -24 -75 -12
        -76 -18 -76 -303 0 -280 9 -344 59 -406 44 -55 84 -73 173 -78 95 -6 153 13
        196 63 54 60 57 84 57 396 0 327 0 325 -79 331 -28 2 -41 8 -41 18 0 12 23 15
        140 18 76 1 145 0 152 -2 20 -8 3 -36 -22 -36 -13 0 -33 -9 -46 -19 l-24 -19
        -5 -304 c-5 -273 -7 -306 -24 -338 -37 -69 -69 -100 -134 -132 -64 -32 -71
        -33 -187 -33 -111 0 -125 2 -180 28 -74 35 -100 58 -133 122 l-27 50 -5 302
        c-6 339 -4 330 -79 340 -31 4 -41 10 -41 24 0 18 11 19 186 19 171 0 185 -1
        182 -17z m4452 -240 l0 -52 93 -3 92 -3 0 -35 0 -35 -92 -3 -93 -3 0 -187 c1
        -194 3 -207 45 -229 24 -13 71 -6 102 15 20 13 23 12 29 -3 5 -12 -1 -24 -17
        -37 -68 -55 -161 -73 -220 -42 -52 26 -59 60 -59 284 l0 200 -34 0 c-19 0 -38
        4 -41 10 -8 13 178 198 187 185 4 -5 8 -33 8 -62z m-3662 -76 c2 -20 5 -37 8
        -37 2 0 21 11 42 25 121 80 258 71 305 -19 18 -33 20 -62 22 -241 2 -112 6
        -208 9 -214 4 -6 23 -11 42 -11 27 0 34 -4 34 -20 0 -19 -7 -20 -141 -20 -128
        0 -140 2 -137 18 2 11 15 19 38 22 l35 5 3 190 c1 120 -2 199 -8 216 -24 58
        -111 69 -198 25 l-52 -27 2 -202 3 -202 40 -5 c27 -3 40 -10 40 -20 0 -13 -24
        -15 -143 -18 -133 -2 -143 -1 -140 15 2 12 14 19 33 21 51 5 55 19 55 213 0
        162 -2 178 -20 202 -11 14 -29 29 -40 32 -39 12 -19 33 63 63 45 17 87 29 92
        28 6 -1 11 -19 13 -39z m752 -227 l5 -265 35 -5 c23 -3 36 -11 38 -22 3 -16
        -9 -18 -138 -18 -129 0 -141 2 -138 18 2 11 14 18 33 20 51 5 55 19 55 213 0
        98 -4 188 -9 201 -5 13 -21 30 -35 37 -14 8 -26 20 -26 27 0 13 134 64 160 61
        13 -2 16 -42 20 -267z m1091 255 c72 -26 125 -87 129 -150 5 -69 19 -64 -187
        -67 l-188 -3 3 -60 c5 -115 73 -207 165 -222 44 -7 114 16 162 53 27 20 39 24
        48 15 16 -16 -64 -95 -130 -128 -45 -21 -63 -25 -122 -21 -100 5 -154 41 -200
        131 -32 62 -35 76 -34 150 0 108 29 183 91 243 72 70 170 91 263 59z m419 -42
        l0 -57 51 52 c54 55 100 73 148 56 57 -20 60 -101 5 -126 -22 -10 -31 -9 -56
        5 -45 26 -80 22 -114 -14 l-29 -30 -3 -170 c-2 -118 0 -175 8 -184 7 -8 36
        -15 68 -17 45 -2 58 -7 60 -21 3 -16 -8 -17 -170 -15 -146 3 -173 5 -173 18 0
        10 14 17 45 20 l45 5 3 203 2 202 -35 21 c-19 12 -32 25 -29 30 8 14 136 78
        157 79 14 0 17 -9 17 -57z m653 34 l37 -16 0 -66 c0 -57 -2 -66 -17 -63 -9 2
        -20 17 -25 34 -13 51 -50 77 -117 82 -54 4 -62 2 -85 -21 -51 -51 -26 -109 65
        -152 185 -88 209 -110 209 -197 0 -82 -46 -140 -134 -168 -51 -16 -170 -8
        -217 15 -36 17 -37 19 -44 88 -9 91 5 106 38 41 32 -63 62 -91 112 -102 78
        -17 135 18 135 84 0 43 -36 79 -117 115 -122 55 -163 100 -163 179 0 76 45
        137 118 161 40 13 161 4 205 -14z m377 -234 c0 -142 4 -263 8 -270 4 -6 23
        -13 42 -15 24 -2 36 -9 38 -20 3 -17 -9 -18 -143 -18 -134 0 -146 1 -143 18 2
        11 14 18 38 20 19 2 38 9 42 15 4 7 8 99 8 205 0 192 0 193 -25 217 -13 14
        -29 25 -35 25 -5 0 -10 6 -10 14 0 8 30 24 73 38 119 41 107 66 107 -229z
        m1521 242 c68 -14 79 -28 79 -100 0 -78 -16 -86 -45 -22 -28 59 -77 90 -133
        84 -53 -6 -92 -39 -92 -78 0 -44 42 -83 127 -119 133 -57 173 -99 173 -181 0
        -62 -38 -122 -97 -150 -66 -32 -189 -33 -249 -2 -38 21 -42 25 -47 75 -14 114
        2 131 43 46 29 -60 60 -86 112 -94 74 -12 128 23 128 82 0 47 -31 76 -137 129
        -110 55 -135 84 -141 164 -3 46 0 62 20 90 50 74 141 101 259 76z m411 -260
        l3 -260 30 -9 c17 -5 36 -10 42 -12 7 -2 10 -10 7 -19 -5 -12 -29 -15 -145
        -15 -132 0 -139 1 -139 20 0 15 7 20 29 20 59 0 62 12 59 227 l-3 195 -32 27
        c-18 15 -33 32 -33 38 0 12 162 64 172 54 4 -4 9 -123 10 -266z m-927 246 c68
        -31 125 -113 125 -182 0 -35 -20 -39 -207 -39 l-182 0 5 -52 c9 -82 23 -118
        66 -164 70 -76 154 -82 249 -18 28 19 55 34 60 34 41 0 -53 -102 -126 -136
        -62 -30 -152 -32 -210 -5 -55 25 -109 88 -130 151 -24 73 -17 207 14 272 62
        129 217 193 336 139z m-3167 -8 c-2 -12 -14 -19 -36 -21 -18 -2 -35 -9 -38
        -16 -6 -15 118 -341 130 -341 4 0 35 65 67 145 65 160 71 203 29 209 -26 3
        -42 19 -34 33 3 4 52 8 110 8 95 0 104 -2 104 -19 0 -12 -9 -20 -28 -24 -37
        -7 -50 -28 -108 -168 -152 -367 -151 -364 -171 -367 -18 -3 -30 20 -93 180
        -131 333 -138 347 -174 356 -17 5 -32 16 -34 25 -3 15 11 17 138 17 129 0 141
        -2 138 -17z" fill="#0c2571"/>
        <path d="M2925 2235 c-66 -36 -65 -34 -65 -202 0 -134 3 -159 20 -193 24 -47
        64 -70 121 -70 147 0 233 200 153 356 -50 100 -155 149 -229 109z" fill="#0c2571"/>
        <path d="M2317 1995 c-82 -29 -122 -56 -135 -93 -19 -54 25 -107 88 -107 27 0
        52 10 82 31 l43 30 3 82 c2 45 -1 82 -5 81 -4 0 -38 -11 -76 -24z" fill="#0c2571"/>
        <path d="M3670 2001 c-114 -36 -160 -72 -160 -126 0 -67 61 -99 134 -71 74 28
        87 51 84 139 l-3 75 -55 -17z" fill="#0c2571"/>
        <path d="M3115 998 c-28 -22 -68 -96 -59 -110 3 -4 56 -8 118 -8 132 0 145 7
        126 64 -17 51 -53 76 -110 76 -33 0 -55 -6 -75 -22z" fill="#0c2571"/>
        <path d="M5562 990 c-32 -20 -76 -95 -66 -112 3 -4 56 -8 118 -8 88 0 116 3
        126 15 17 20 5 64 -28 98 -33 34 -100 37 -150 7z" fill="#0c2571"/>
    </g>
</svg>
